<svg width="18" height="18" fill="none" xmlns="http://www.w3.org/2000/svg"><path d="M14.45.67 2.076 4.795a2.5 2.5 0 0 0-.106 4.703l4.578 1.75a.883.883 0 0 1 .483.483l1.75 4.578a2.5 2.5 0 0 0 4.102.872c.273-.278.48-.614.607-.984l4.124-12.374A2.5 2.5 0 0 0 14.456.665L14.45.67zM16.03 3.3l-4.126 12.374a.834.834 0 0 1-1.561.03L8.587 11.13a1.668 1.668 0 0 0-.083-.177l4.06-4.06a.833.833 0 0 0-1.178-1.179l-4.06 4.06a1.667 1.667 0 0 0-.177-.082L2.576 7.936a.833.833 0 0 1 .03-1.562L14.98 2.25a.833.833 0 0 1 1.05 1.049z" fill="#C9D1DD"/></svg>