<svg width="20" height="20" fill="none" xmlns="http://www.w3.org/2000/svg"><g clip-path="url(#a)"><path d="M15.45 1.67 3.076 5.795a2.5 2.5 0 0 0-.106 4.703l4.578 1.75a.883.883 0 0 1 .483.483l1.75 4.578a2.5 2.5 0 0 0 4.102.872c.273-.278.48-.614.607-.984l4.124-12.374a2.5 2.5 0 0 0-3.158-3.158l-.006.005zM17.03 4.3l-4.126 12.374a.834.834 0 0 1-1.561.03L9.587 12.13a1.668 1.668 0 0 0-.083-.177l4.06-4.06a.833.833 0 0 0-1.178-1.179l-4.06 4.06a1.666 1.666 0 0 0-.177-.082L3.576 8.936a.833.833 0 0 1 .03-1.562L15.98 3.25a.833.833 0 0 1 1.05 1.049z" fill="#fff"/></g><defs><clipPath id="a"><path fill="#fff" d="M0 0h20v20H0z"/></clipPath></defs></svg>